#N canvas 467 133 619 708 10;
#X obj 36 190 mtof;
#X obj 51 401 /~;
#X obj 51 448 /~ 2;
#X obj 36 474 *~;
#X obj 36 143 * 100;
#X obj 36 70 tgl 15 0 empty empty empty 17 7 0 10 #fcfcfc #000000 #000000
1 1;
#X obj 36 529 *~ 100;
#X obj 36 553 osc~;
#X obj 36 115 random 6;
#X obj 290 367 /~;
#X obj 275 437 *~;
#X obj 290 390 *~ 0.75;
#X obj 220 234 mtof;
#X obj 220 188 * 100;
#X obj 220 125 random 3;
#X obj 36 669 dac~;
#X obj 36 580 hip~ 5;
#X obj 36 634 *~;
#X obj 36 91 metro 100;
#X obj 305 339 phasor~ 12;
#X obj 36 216 osc~;
#X obj 247 164 hsl 128 15 0 300 0 0 empty empty empty -2 -8 0 10 #fcfcfc
#000000 #000000 8000 1;
#X obj 290 414 /~ 25;
#X obj 66 374 phasor~ 7;
#X obj 51 268 phasor~ 12;
#X obj 220 211 + 30;
#X obj 290 315 osc~ 260;
#X obj 291 216 hsl 128 15 0 500 0 0 empty empty empty -2 -8 0 10 #fcfcfc
#000000 #000000 5050 1;
#X obj 291 239 mtof;
#X obj 361 278 hsl 128 15 350 500 0 0 empty empty empty -2 -8 0 10
#fcfcfc #000000 #000000 8850 1;
#X obj 361 299 mtof;
#X obj 51 248 mtof;
#X obj 36 166 + 5;
#X obj 220 101 metro 800;
#X obj 36 502 /~ 2.3;
#X obj 51 424 *~ 2.5;
#X obj 66 300 hsl 128 15 0 100 0 0 empty empty empty -2 -8 0 10 #fcfcfc
#000000 #000000 8650 1;
#X obj 66 349 mtof;
#X obj 66 323 / 100;
#X obj 220 258 phasor~;
#X msg 51 604 0.06;
#X obj 423 494 metro 100;
#X obj 423 519 snapshot~;
#X obj 423 544 * 50;
#X obj 423 568 s moveZ;
#X obj 380 378 snapshot~;
#X obj 474 323 metro 100;
#X obj 474 348 snapshot~;
#X obj 474 371 * 500;
#X obj 145 398 metro 100;
#X obj 145 423 snapshot~;
#X obj 145 448 * 50;
#X obj 145 496 s moveZ1;
#X obj 515 395 s changeG;
#X obj 317 100 ctlin 2;
#X obj 398 159 ctlin 3;
#X obj 154 258 ctlin 5;
#X obj 481 214 ctlin 6;
#X obj 481 236 * 4;
#X obj 398 184 * 4;
#X obj 317 122 * 3;
#X obj 477 302 loadbang;
#X obj 380 329 loadbang;
#X obj 423 468 loadbang;
#X obj 140 373 loadbang;
#X obj 220 78 loadbang;
#X obj 123 90 metro 300;
#X obj 123 115 random 500;
#X obj 103 190 metro 500;
#X obj 103 215 random 300;
#X obj 380 421 send changeR;
#X obj 380 353 metro 200;
#X obj 380 401 / 1.2;
#X obj 515 369 / 0.9;
#X obj 123 66 loadbang;
#X obj 103 166 loadbang;
#X connect 0 0 20 0;
#X connect 1 0 35 0;
#X connect 2 0 3 1;
#X connect 3 0 34 0;
#X connect 4 0 32 0;
#X connect 5 0 18 0;
#X connect 6 0 7 0;
#X connect 7 0 16 0;
#X connect 8 0 4 0;
#X connect 9 0 11 0;
#X connect 10 0 34 0;
#X connect 10 0 42 0;
#X connect 11 0 22 0;
#X connect 12 0 39 0;
#X connect 13 0 25 0;
#X connect 14 0 13 0;
#X connect 16 0 17 0;
#X connect 17 0 15 0;
#X connect 17 0 15 1;
#X connect 18 0 8 0;
#X connect 19 0 9 1;
#X connect 19 0 45 0;
#X connect 20 0 3 0;
#X connect 21 0 13 1;
#X connect 22 0 10 1;
#X connect 23 0 1 1;
#X connect 23 0 50 0;
#X connect 24 0 1 0;
#X connect 25 0 12 0;
#X connect 26 0 9 0;
#X connect 27 0 28 0;
#X connect 28 0 26 0;
#X connect 29 0 30 0;
#X connect 30 0 19 0;
#X connect 31 0 24 0;
#X connect 32 0 0 0;
#X connect 33 0 14 0;
#X connect 34 0 6 0;
#X connect 35 0 2 0;
#X connect 36 0 38 0;
#X connect 37 0 23 0;
#X connect 38 0 37 0;
#X connect 39 0 10 0;
#X connect 39 0 47 0;
#X connect 40 0 17 1;
#X connect 41 0 42 0;
#X connect 42 0 43 0;
#X connect 43 0 44 0;
#X connect 45 0 72 0;
#X connect 46 0 47 0;
#X connect 47 0 48 0;
#X connect 47 0 73 0;
#X connect 48 0 41 1;
#X connect 49 0 50 0;
#X connect 50 0 51 0;
#X connect 51 0 52 0;
#X connect 54 0 60 0;
#X connect 55 0 59 0;
#X connect 56 0 36 0;
#X connect 57 0 58 0;
#X connect 58 0 29 0;
#X connect 59 0 27 0;
#X connect 60 0 21 0;
#X connect 61 0 46 0;
#X connect 62 0 71 0;
#X connect 63 0 41 0;
#X connect 64 0 49 0;
#X connect 65 0 33 0;
#X connect 66 0 67 0;
#X connect 67 0 4 1;
#X connect 68 0 69 0;
#X connect 69 0 31 0;
#X connect 71 0 45 0;
#X connect 72 0 70 0;
#X connect 73 0 53 0;
#X connect 74 0 66 0;
#X connect 75 0 68 0;
