#N canvas 867 267 921 706 12;
#X obj 701 27 cnv 15 179 214 empty empty empty 20 12 0 14 #77b6ea #404040
0;
#X text 721 36 PRESS THIS;
#X obj 35 158 gemwin;
#X msg 35 18 create;
#X msg 54 47 destroy;
#X obj 65 81 tgl 25 0 empty empty on/off 30 10 0 12 #fcfcfc #000000
#000000 1 1;
#X msg 67 115 dimen 700 700;
#X obj 85 280 gemhead;
#X obj 85 256 tgl 15 0 empty empty on/off 30 10 0 12 #fcfcfc #000000
#000000 1 1;
#X msg 136 512 draw line;
#X obj 85 333 translateXYZ, f 16;
#X obj 85 385 rotateXYZ, f 15;
#X text 64 229 RUBBER GRID;
#X obj 121 307 r tx;
#X obj 157 308 r ty;
#X obj 194 308 r tz;
#X obj 192 361 r rz;
#X obj 155 361 r ry;
#X obj 119 360 r rx;
#X obj 442 152 snapshot~;
#X obj 442 181 * 5;
#X obj 612 152 snapshot~;
#X obj 598 92 metro 70;
#X obj 612 181 * 2;
#X obj 532 149 snapshot~;
#X obj 532 120 osc~ 1;
#X obj 532 178 * 2;
#X obj 518 89 metro 30;
#X obj 150 544 r height;
#X obj 182 570 r posX;
#X obj 215 594 r posY;
#X obj 345 323 gemhead;
#X obj 345 299 tgl 15 0 empty empty on/off 30 10 0 12 #fcfcfc #000000
#000000 1 1;
#X msg 396 545 draw line;
#X obj 345 376 translateXYZ, f 16;
#X obj 345 428 rotateXYZ, f 15;
#X text 324 272 RUBBER GRID;
#X obj 454 351 r tz;
#X obj 452 404 r rz;
#X obj 410 574 r height;
#X obj 442 600 r posY;
#X obj 475 624 r posX;
#X obj 417 351 r tx;
#X obj 381 350 r ty;
#X obj 379 403 r ry;
#X obj 415 404 r rx;
#X obj 428 92 metro 100;
#X obj 312 79 metro 150;
#X obj 312 196 * -1;
#X obj 229 71 r moveZ;
#X obj 226 129 r moveZ1;
#X obj 345 518 colorRGB;
#X obj 85 485 colorRGB;
#X obj 297 453 r changeG;
#X obj 177 460 loadbang;
#X obj 443 463 loadbang;
#X obj 612 123 osc~ 1.7;
#X obj 442 123 osc~ 2.2;
#X msg 383 607 30;
#X msg 119 589 40;
#X obj 312 52 loadbang;
#X obj 226 158 s rz;
#X text 256 22 TRANSLATE & ROTATE;
#X obj 229 100 s tz;
#X obj 312 108 random 500;
#X obj 312 137 - 250;
#X obj 312 167 / 10;
#X obj 375 187 s ty;
#X obj 375 216 s tx;
#X obj 312 222 s ry;
#X obj 259 224 s rx;
#X obj 442 207 s height;
#X obj 612 210 s posX;
#X obj 532 207 s posY;
#X obj 735 179 tgl 15 0 empty empty empty 17 7 0 10 #fcfcfc #000000
#000000 1 1;
#X obj 735 203 s active;
#X obj 559 31 r active;
#X obj 85 624 rubber 32 32, f 19;
#X obj 345 654 rubber 32 32, f 19;
#X msg 148 421 0.5;
#X obj 101 448 r changeR;
#X msg 100 419 0.7;
#X msg 383 467 0.4;
#X msg 387 493 0.9;
#X obj 736 105 bng 15 250 50 0 empty empty empty 17 7 0 10 #fcfcfc
#000000 #000000;
#X obj 736 129 s grabber;
#X text 721 66 B4 THE ACTIVE TOGGLE;
#X obj 63 543 r grabber;
#X obj 323 573 r grabber;
#X connect 3 0 2 0;
#X connect 4 0 2 0;
#X connect 5 0 2 0;
#X connect 6 0 2 0;
#X connect 7 0 10 0;
#X connect 8 0 7 0;
#X connect 9 0 77 0;
#X connect 10 0 11 0;
#X connect 11 0 52 0;
#X connect 13 0 10 1;
#X connect 14 0 10 2;
#X connect 15 0 10 3;
#X connect 16 0 11 3;
#X connect 17 0 11 2;
#X connect 18 0 11 1;
#X connect 19 0 20 0;
#X connect 20 0 71 0;
#X connect 21 0 23 0;
#X connect 22 0 21 0;
#X connect 23 0 72 0;
#X connect 24 0 26 0;
#X connect 25 0 24 0;
#X connect 26 0 73 0;
#X connect 27 0 24 0;
#X connect 28 0 77 2;
#X connect 29 0 77 3;
#X connect 30 0 77 4;
#X connect 31 0 34 0;
#X connect 32 0 31 0;
#X connect 33 0 78 0;
#X connect 34 0 35 0;
#X connect 35 0 51 0;
#X connect 37 0 34 3;
#X connect 38 0 35 3;
#X connect 39 0 78 2;
#X connect 40 0 78 3;
#X connect 41 0 78 4;
#X connect 42 0 34 2;
#X connect 43 0 34 1;
#X connect 44 0 35 1;
#X connect 45 0 35 2;
#X connect 46 0 19 0;
#X connect 47 0 64 0;
#X connect 48 0 68 0;
#X connect 48 0 69 0;
#X connect 49 0 63 0;
#X connect 50 0 61 0;
#X connect 51 0 78 0;
#X connect 52 0 77 0;
#X connect 53 0 51 2;
#X connect 54 0 79 0;
#X connect 54 0 81 0;
#X connect 54 0 9 0;
#X connect 54 0 59 0;
#X connect 55 0 82 0;
#X connect 55 0 33 0;
#X connect 55 0 58 0;
#X connect 55 0 83 0;
#X connect 56 0 21 0;
#X connect 57 0 19 0;
#X connect 58 0 78 1;
#X connect 59 0 77 1;
#X connect 60 0 47 0;
#X connect 64 0 65 0;
#X connect 65 0 66 0;
#X connect 66 0 48 0;
#X connect 66 0 67 0;
#X connect 66 0 70 0;
#X connect 74 0 75 0;
#X connect 76 0 46 0;
#X connect 76 0 22 0;
#X connect 76 0 27 0;
#X connect 79 0 52 2;
#X connect 80 0 52 1;
#X connect 81 0 52 3;
#X connect 82 0 51 1;
#X connect 83 0 51 3;
#X connect 84 0 85 0;
#X connect 87 0 77 0;
#X connect 88 0 78 0;
